<mxfile host="app.diagrams.net" agent="Mozilla/5.0 (Windows NT 10.0; Win64; x64) AppleWebKit/537.36 (KHTML, like Gecko) Chrome/137.0.0.0 Safari/537.36 Edg/137.0.0.0" version="27.1.3">
  <diagram name="第 1 页" id="PIP7-NoPPdK2hxn4YWmj">
    <mxGraphModel dx="988" dy="574" grid="1" gridSize="10" guides="1" tooltips="1" connect="1" arrows="1" fold="1" page="1" pageScale="1" pageWidth="827" pageHeight="1169" math="0" shadow="0">
      <root>
        <mxCell id="0" />
        <mxCell id="1" parent="0" />
        <mxCell id="jmSGmUZdBih4DUMtpasL-4" style="edgeStyle=orthogonalEdgeStyle;rounded=0;orthogonalLoop=1;jettySize=auto;html=1;entryX=0.5;entryY=0;entryDx=0;entryDy=0;" edge="1" parent="1" source="jmSGmUZdBih4DUMtpasL-1" target="jmSGmUZdBih4DUMtpasL-3">
          <mxGeometry relative="1" as="geometry" />
        </mxCell>
        <mxCell id="jmSGmUZdBih4DUMtpasL-1" value="开始" style="whiteSpace=wrap;html=1;aspect=fixed;" vertex="1" parent="1">
          <mxGeometry x="150" y="40" width="50" height="50" as="geometry" />
        </mxCell>
        <mxCell id="jmSGmUZdBih4DUMtpasL-3" value="前台登录" style="rounded=0;whiteSpace=wrap;html=1;" vertex="1" parent="1">
          <mxGeometry x="142.5" y="130" width="65" height="40" as="geometry" />
        </mxCell>
        <mxCell id="jmSGmUZdBih4DUMtpasL-5" value="输入账号密码" style="shape=parallelogram;perimeter=parallelogramPerimeter;whiteSpace=wrap;html=1;fixedSize=1;" vertex="1" parent="1">
          <mxGeometry x="350" y="270" width="120" height="60" as="geometry" />
        </mxCell>
        <mxCell id="jmSGmUZdBih4DUMtpasL-6" value="输入账号密码" style="rounded=0;whiteSpace=wrap;html=1;" vertex="1" parent="1">
          <mxGeometry x="350" y="270" width="120" height="60" as="geometry" />
        </mxCell>
      </root>
    </mxGraphModel>
  </diagram>
</mxfile>
